# xmcd CD database file
#
# Track frame offsets:
#	150
#	900
#	1650
#	2400
#	3150
#	3900
#	4650
#	5400
#	6150
#	6900
#	7650
#	206112
#
# Disc length: 4440 seconds
#
# Revision: 1
# Processed by: cddbd v1.4PL0 Copyright (c) Steve Scherf et al.
# Submitted via: CDex 1.50beta8
#
DISCID=5911560c
DTITLE=Michel Jonasz - Ou vont les réves
DYEAR=2002
DGENRE=Jazz
TTITLE0=Terre
TTITLE1=Ou vont les réves
TTITLE2=Vieux style
TTITLE3=Le lafontaine
TTITLE4=Le grand-pére
TTITLE5=Doucement
TTITLE6=Melancolie
TTITLE7=Modern hotel
TTITLE8=Le rhythm and blues
TTITLE9=Je pense à elle tous les jours
TTITLE10=Juste une bouffée d'air pure
TTITLE11=Bonus
EXTD=YEAR: 2002
EXTT0=
EXTT1=
EXTT2=
EXTT3=
EXTT4=
EXTT5=
EXTT6=
EXTT7=
EXTT8=
EXTT9=
EXTT10=
EXTT11=
PLAYORDER=
